<svg xmlns="http://www.w3.org/2000/svg" viewBox="0 0 600 400" width="600" height="400">
  <defs>
    <linearGradient id="bg-inv" x1="0%" y1="0%" x2="100%" y2="100%">
      <stop offset="0%" style="stop-color:#0a0a0a"/>
      <stop offset="100%" style="stop-color:#111827"/>
    </linearGradient>
  </defs>
  <rect width="600" height="400" fill="url(#bg-inv)" rx="12"/>
  <g opacity="0.05">
    <line x1="100" y1="0" x2="100" y2="400" stroke="#8b5cf6" stroke-width="0.5"/>
    <line x1="200" y1="0" x2="200" y2="400" stroke="#8b5cf6" stroke-width="0.5"/>
    <line x1="300" y1="0" x2="300" y2="400" stroke="#8b5cf6" stroke-width="0.5"/>
    <line x1="400" y1="0" x2="400" y2="400" stroke="#8b5cf6" stroke-width="0.5"/>
    <line x1="500" y1="0" x2="500" y2="400" stroke="#8b5cf6" stroke-width="0.5"/>
  </g>
  <!-- Browser frame -->
  <rect x="60" y="40" width="480" height="300" rx="8" fill="#1a1a2e" stroke="#8b5cf6" stroke-width="1.5" opacity="0.9"/>
  <rect x="60" y="40" width="480" height="32" rx="8" fill="#0f0f1a"/>
  <rect x="60" y="60" width="480" height="12" fill="#0f0f1a"/>
  <circle cx="80" cy="56" r="5" fill="#ff5f57"/>
  <circle cx="96" cy="56" r="5" fill="#febc2e"/>
  <circle cx="112" cy="56" r="5" fill="#28c840"/>
  <rect x="135" y="48" width="280" height="16" rx="4" fill="#0a0a0a" opacity="0.6"/>
  <text x="150" y="60" font-family="Consolas, monospace" font-size="8" fill="#8b5cf6" opacity="0.7">invoicegen.app/dashboard</text>
  <!-- Sidebar -->
  <rect x="60" y="72" width="90" height="268" fill="#0f0f1a" opacity="0.8"/>
  <rect x="72" y="88" width="66" height="8" rx="2" fill="#8b5cf6" opacity="0.6"/>
  <rect x="72" y="106" width="50" height="6" rx="2" fill="#ffffff" opacity="0.2"/>
  <rect x="72" y="120" width="58" height="6" rx="2" fill="#ffffff" opacity="0.2"/>
  <rect x="72" y="134" width="42" height="6" rx="2" fill="#ffffff" opacity="0.2"/>
  <rect x="72" y="148" width="54" height="6" rx="2" fill="#ffffff" opacity="0.15"/>
  <!-- Dashboard header -->
  <text x="165" y="92" font-family="Arial, sans-serif" font-size="12" font-weight="bold" fill="#ffffff" opacity="0.9">Dashboard</text>
  <!-- Stats cards -->
  <rect x="160" y="100" width="90" height="55" rx="6" fill="#0f0f1a" stroke="#8b5cf6" stroke-width="0.5"/>
  <text x="172" y="118" font-family="Arial" font-size="7" fill="#8b5cf6" opacity="0.7">Total Revenue</text>
  <text x="172" y="138" font-family="Arial" font-size="16" font-weight="bold" fill="#8b5cf6">$12.4k</text>
  <rect x="260" y="100" width="90" height="55" rx="6" fill="#0f0f1a" stroke="#8b5cf6" stroke-width="0.5"/>
  <text x="272" y="118" font-family="Arial" font-size="7" fill="#10b981" opacity="0.7">Paid</text>
  <text x="272" y="138" font-family="Arial" font-size="16" font-weight="bold" fill="#10b981">24</text>
  <rect x="360" y="100" width="90" height="55" rx="6" fill="#0f0f1a" stroke="#8b5cf6" stroke-width="0.5"/>
  <text x="372" y="118" font-family="Arial" font-size="7" fill="#f59e0b" opacity="0.7">Pending</text>
  <text x="372" y="138" font-family="Arial" font-size="16" font-weight="bold" fill="#f59e0b">7</text>
  <rect x="460" y="100" width="70" height="55" rx="6" fill="#0f0f1a" stroke="#8b5cf6" stroke-width="0.5"/>
  <text x="472" y="118" font-family="Arial" font-size="7" fill="#ef4444" opacity="0.7">Overdue</text>
  <text x="472" y="138" font-family="Arial" font-size="16" font-weight="bold" fill="#ef4444">2</text>
  <!-- Invoice table -->
  <rect x="160" y="165" width="370" height="25" rx="4" fill="#8b5cf6" opacity="0.1"/>
  <text x="172" y="182" font-family="Arial" font-size="8" fill="#8b5cf6" opacity="0.8">Invoice #</text>
  <text x="252" y="182" font-family="Arial" font-size="8" fill="#8b5cf6" opacity="0.8">Client</text>
  <text x="352" y="182" font-family="Arial" font-size="8" fill="#8b5cf6" opacity="0.8">Amount</text>
  <text x="442" y="182" font-family="Arial" font-size="8" fill="#8b5cf6" opacity="0.8">Status</text>
  <g font-family="Arial" font-size="8" fill="#ffffff" opacity="0.6">
    <text x="172" y="205">INV-0034</text><text x="252" y="205">Acme Corp</text><text x="352" y="205">$2,400</text>
    <rect x="442" y="197" width="40" height="14" rx="7" fill="#10b981" opacity="0.2"/>
    <text x="450" y="207" fill="#10b981" opacity="0.9" font-size="7">Paid</text>
    <text x="172" y="225">INV-0035</text><text x="252" y="225">TechFlow</text><text x="352" y="225">$1,800</text>
    <rect x="442" y="217" width="50" height="14" rx="7" fill="#f59e0b" opacity="0.2"/>
    <text x="448" y="227" fill="#f59e0b" opacity="0.9" font-size="7">Pending</text>
    <text x="172" y="245">INV-0036</text><text x="252" y="245">DesignLab</text><text x="352" y="245">$3,200</text>
    <rect x="442" y="237" width="40" height="14" rx="7" fill="#10b981" opacity="0.2"/>
    <text x="450" y="247" fill="#10b981" opacity="0.9" font-size="7">Paid</text>
  </g>
  <!-- PDF icon -->
  <rect x="160" y="260" width="80" height="30" rx="6" fill="#8b5cf6" opacity="0.2"/>
  <text x="175" y="280" font-family="Arial" font-size="9" fill="#8b5cf6">Download PDF</text>
  <text x="300" y="390" font-family="Arial, sans-serif" font-size="14" fill="#ffffff" opacity="0.4" text-anchor="middle" letter-spacing="3">Invoice Generator</text>
</svg>