<svg xmlns="http://www.w3.org/2000/svg" viewBox="0 0 600 400" width="600" height="400">
  <defs>
    <linearGradient id="bg-eq" x1="0%" y1="0%" x2="100%" y2="100%">
      <stop offset="0%" style="stop-color:#0a0a0a"/>
      <stop offset="100%" style="stop-color:#111827"/>
    </linearGradient>
  </defs>
  <rect width="600" height="400" fill="url(#bg-eq)" rx="12"/>
  <!-- Phone frame -->
  <rect x="200" y="30" width="200" height="340" rx="20" fill="#1a1a2e" stroke="#22c55e" stroke-width="1.5"/>
  <rect x="250" y="38" width="100" height="6" rx="3" fill="#0f0f1a"/>
  <!-- Header -->
  <text x="240" y="75" font-family="Arial, sans-serif" font-size="14" font-weight="bold" fill="#22c55e">EcoQuest</text>
  <text x="340" y="75" font-family="Arial" font-size="12" fill="#22c55e">🌿</text>
  <!-- XP bar -->
  <rect x="218" y="82" width="164" height="18" rx="9" fill="#0f0f1a" opacity="0.8"/>
  <rect x="220" y="84" width="110" height="14" rx="7" fill="#22c55e" opacity="0.3"/>
  <text x="300" y="94" font-family="Arial" font-size="7" fill="#ffffff" text-anchor="middle" opacity="0.8">Level 12 - 680/1000 XP</text>
  <!-- Camera viewfinder -->
  <rect x="218" y="108" width="164" height="120" rx="8" fill="#0a0a0a" stroke="#22c55e" stroke-width="0.5" opacity="0.6"/>
  <rect x="228" y="118" width="20" height="20" fill="none" stroke="#22c55e" stroke-width="1.5" opacity="0.4"/>
  <line x1="228" y1="118" x2="238" y2="118" stroke="#22c55e" stroke-width="2"/>
  <line x1="228" y1="118" x2="228" y2="128" stroke="#22c55e" stroke-width="2"/>
  <rect x="352" y="118" width="20" height="20" fill="none" stroke="#22c55e" stroke-width="1.5" opacity="0.4"/>
  <line x1="362" y1="118" x2="372" y2="118" stroke="#22c55e" stroke-width="2"/>
  <line x1="372" y1="118" x2="372" y2="128" stroke="#22c55e" stroke-width="2"/>
  <rect x="228" y="198" width="20" height="20" fill="none" stroke="#22c55e" stroke-width="1.5" opacity="0.4"/>
  <line x1="228" y1="218" x2="238" y2="218" stroke="#22c55e" stroke-width="2"/>
  <line x1="228" y1="208" x2="228" y2="218" stroke="#22c55e" stroke-width="2"/>
  <rect x="352" y="198" width="20" height="20" fill="none" stroke="#22c55e" stroke-width="1.5" opacity="0.4"/>
  <line x1="362" y1="218" x2="372" y2="218" stroke="#22c55e" stroke-width="2"/>
  <line x1="372" y1="208" x2="372" y2="218" stroke="#22c55e" stroke-width="2"/>
  <!-- QR icon in center -->
  <rect x="280" y="148" width="40" height="40" rx="4" fill="#22c55e" opacity="0.1" stroke="#22c55e" stroke-width="1"/>
  <rect x="288" y="156" width="8" height="8" fill="#22c55e" opacity="0.5"/>
  <rect x="304" y="156" width="8" height="8" fill="#22c55e" opacity="0.5"/>
  <rect x="288" y="172" width="8" height="8" fill="#22c55e" opacity="0.5"/>
  <rect x="296" y="164" width="8" height="8" fill="#22c55e" opacity="0.3"/>
  <text x="300" y="200" font-family="Arial" font-size="7" fill="#22c55e" text-anchor="middle" opacity="0.7">Scan eco-challenge</text>
  <!-- Challenge cards -->
  <rect x="218" y="236" width="164" height="40" rx="6" fill="#0f0f1a" stroke="#22c55e" stroke-width="0.5" opacity="0.8"/>
  <circle cx="236" cy="256" r="10" fill="#22c55e" opacity="0.15"/>
  <text x="236" y="260" font-family="Arial" font-size="10" text-anchor="middle" fill="#22c55e">♻</text>
  <text x="254" y="252" font-family="Arial" font-size="8" fill="#ffffff" opacity="0.9">Recycle 5 items</text>
  <text x="254" y="264" font-family="Arial" font-size="7" fill="#22c55e" opacity="0.7">+50 XP - 3/5 complete</text>
  <rect x="218" y="282" width="164" height="40" rx="6" fill="#0f0f1a" stroke="#22c55e" stroke-width="0.5" opacity="0.8"/>
  <circle cx="236" cy="302" r="10" fill="#22c55e" opacity="0.15"/>
  <text x="236" y="306" font-family="Arial" font-size="10" text-anchor="middle" fill="#22c55e">🌱</text>
  <text x="254" y="298" font-family="Arial" font-size="8" fill="#ffffff" opacity="0.9">Plant a tree</text>
  <text x="254" y="310" font-family="Arial" font-size="7" fill="#f59e0b" opacity="0.7">+100 XP - Not started</text>
  <!-- Bottom nav -->
  <rect x="215" y="330" width="170" height="28" fill="#0f0f1a" opacity="0.8"/>
  <text x="300" y="390" font-family="Arial, sans-serif" font-size="14" fill="#ffffff" opacity="0.4" text-anchor="middle" letter-spacing="3">EcoQuest</text>
</svg>