<svg xmlns="http://www.w3.org/2000/svg" viewBox="0 0 600 400" width="600" height="400">
  <defs>
    <linearGradient id="bg-ms" x1="0%" y1="0%" x2="100%" y2="100%">
      <stop offset="0%" style="stop-color:#0a0a0a"/>
      <stop offset="100%" style="stop-color:#111827"/>
    </linearGradient>
  </defs>
  <rect width="600" height="400" fill="url(#bg-ms)" rx="12"/>
  <!-- Phone frame -->
  <rect x="200" y="30" width="200" height="340" rx="20" fill="#1a1a2e" stroke="#3b82f6" stroke-width="1.5"/>
  <rect x="250" y="38" width="100" height="6" rx="3" fill="#0f0f1a"/>
  <!-- Header -->
  <text x="230" y="75" font-family="Arial, sans-serif" font-size="13" font-weight="bold" fill="#ffffff">Meet Scheduler</text>
  <!-- Category chips -->
  <rect x="218" y="85" width="45" height="16" rx="8" fill="#3b82f6" opacity="0.2"/>
  <text x="227" y="96" font-family="Arial" font-size="7" fill="#3b82f6">Work</text>
  <rect x="268" y="85" width="55" height="16" rx="8" fill="#10b981" opacity="0.2"/>
  <text x="275" y="96" font-family="Arial" font-size="7" fill="#10b981">Personal</text>
  <rect x="328" y="85" width="48" height="16" rx="8" fill="#f59e0b" opacity="0.2"/>
  <text x="335" y="96" font-family="Arial" font-size="7" fill="#f59e0b">Urgent</text>
  <!-- Meeting cards -->
  <rect x="218" y="110" width="164" height="52" rx="8" fill="#0f0f1a" stroke="#3b82f6" stroke-width="0.5" opacity="0.8"/>
  <rect x="222" y="114" width="3" height="44" rx="1.5" fill="#ef4444"/>
  <text x="233" y="128" font-family="Arial" font-size="9" font-weight="bold" fill="#ffffff" opacity="0.9">Sprint Planning</text>
  <text x="233" y="140" font-family="Arial" font-size="7" fill="#3b82f6" opacity="0.7">09:00 - 10:00 AM</text>
  <rect x="233" y="146" width="35" height="12" rx="6" fill="#ef4444" opacity="0.2"/>
  <text x="239" y="155" font-family="Arial" font-size="6" fill="#ef4444">Urgent</text>
  <rect x="218" y="170" width="164" height="52" rx="8" fill="#0f0f1a" stroke="#3b82f6" stroke-width="0.5" opacity="0.8"/>
  <rect x="222" y="174" width="3" height="44" rx="1.5" fill="#3b82f6"/>
  <text x="233" y="188" font-family="Arial" font-size="9" font-weight="bold" fill="#ffffff" opacity="0.9">Team Standup</text>
  <text x="233" y="200" font-family="Arial" font-size="7" fill="#3b82f6" opacity="0.7">10:30 - 10:45 AM</text>
  <rect x="233" y="206" width="30" height="12" rx="6" fill="#3b82f6" opacity="0.2"/>
  <text x="238" y="215" font-family="Arial" font-size="6" fill="#3b82f6">Work</text>
  <rect x="218" y="230" width="164" height="52" rx="8" fill="#0f0f1a" stroke="#3b82f6" stroke-width="0.5" opacity="0.8"/>
  <rect x="222" y="234" width="3" height="44" rx="1.5" fill="#10b981"/>
  <text x="233" y="248" font-family="Arial" font-size="9" font-weight="bold" fill="#ffffff" opacity="0.9">Lunch with Sarah</text>
  <text x="233" y="260" font-family="Arial" font-size="7" fill="#3b82f6" opacity="0.7">12:00 - 01:00 PM</text>
  <rect x="233" y="266" width="42" height="12" rx="6" fill="#10b981" opacity="0.2"/>
  <text x="239" y="275" font-family="Arial" font-size="6" fill="#10b981">Personal</text>
  <!-- Stats bar -->
  <rect x="218" y="292" width="164" height="38" rx="8" fill="#0f0f1a" opacity="0.6"/>
  <text x="232" y="308" font-family="Arial" font-size="7" fill="#ffffff" opacity="0.5">Today's meetings</text>
  <text x="232" y="322" font-family="Arial" font-size="10" font-weight="bold" fill="#3b82f6">6 meetings</text>
  <text x="340" y="315" font-family="Arial" font-size="16" fill="#3b82f6" opacity="0.3">📅</text>
  <!-- Bottom nav -->
  <rect x="215" y="338" width="170" height="20" fill="#0f0f1a" opacity="0.8"/>
  <text x="300" y="390" font-family="Arial, sans-serif" font-size="14" fill="#ffffff" opacity="0.4" text-anchor="middle" letter-spacing="3">Meet Scheduler</text>
</svg>