<svg xmlns="http://www.w3.org/2000/svg" viewBox="0 0 600 400" width="600" height="400">
  <defs>
    <linearGradient id="bg-clen" x1="0%" y1="0%" x2="100%" y2="100%">
      <stop offset="0%" style="stop-color:#0a0a0a"/>
      <stop offset="100%" style="stop-color:#111827"/>
    </linearGradient>
    <linearGradient id="cyan-glow" x1="0%" y1="0%" x2="100%" y2="100%">
      <stop offset="0%" style="stop-color:#00d4ff;stop-opacity:0.8"/>
      <stop offset="100%" style="stop-color:#00d4ff;stop-opacity:0.2"/>
    </linearGradient>
    <linearGradient id="card-fill" x1="0%" y1="0%" x2="0%" y2="100%">
      <stop offset="0%" style="stop-color:#1a1a2e"/>
      <stop offset="100%" style="stop-color:#0f0f1a"/>
    </linearGradient>
  </defs>
  <!-- Background -->
  <rect width="600" height="400" fill="url(#bg-clen)" rx="12"/>
  <!-- Subtle grid pattern -->
  <g opacity="0.05">
    <line x1="0" y1="50" x2="600" y2="50" stroke="#00d4ff" stroke-width="0.5"/>
    <line x1="0" y1="100" x2="600" y2="100" stroke="#00d4ff" stroke-width="0.5"/>
    <line x1="0" y1="150" x2="600" y2="150" stroke="#00d4ff" stroke-width="0.5"/>
    <line x1="0" y1="200" x2="600" y2="200" stroke="#00d4ff" stroke-width="0.5"/>
    <line x1="0" y1="250" x2="600" y2="250" stroke="#00d4ff" stroke-width="0.5"/>
    <line x1="0" y1="300" x2="600" y2="300" stroke="#00d4ff" stroke-width="0.5"/>
    <line x1="100" y1="0" x2="100" y2="400" stroke="#00d4ff" stroke-width="0.5"/>
    <line x1="200" y1="0" x2="200" y2="400" stroke="#00d4ff" stroke-width="0.5"/>
    <line x1="300" y1="0" x2="300" y2="400" stroke="#00d4ff" stroke-width="0.5"/>
    <line x1="400" y1="0" x2="400" y2="400" stroke="#00d4ff" stroke-width="0.5"/>
    <line x1="500" y1="0" x2="500" y2="400" stroke="#00d4ff" stroke-width="0.5"/>
  </g>
  <!-- Browser window frame -->
  <rect x="60" y="40" width="480" height="300" rx="8" fill="#1a1a2e" stroke="#00d4ff" stroke-width="1.5" opacity="0.9"/>
  <!-- Browser top bar -->
  <rect x="60" y="40" width="480" height="32" rx="8" fill="#0f0f1a"/>
  <rect x="60" y="60" width="480" height="12" fill="#0f0f1a"/>
  <!-- Browser dots -->
  <circle cx="80" cy="56" r="5" fill="#ff5f57"/>
  <circle cx="96" cy="56" r="5" fill="#febc2e"/>
  <circle cx="112" cy="56" r="5" fill="#28c840"/>
  <!-- URL bar -->
  <rect x="135" y="48" width="280" height="16" rx="4" fill="#0a0a0a" opacity="0.6"/>
  <text x="150" y="60" font-family="Consolas, monospace" font-size="8" fill="#00d4ff" opacity="0.7">https://clen-portal.app</text>
  <!-- Sidebar -->
  <rect x="60" y="72" width="100" height="268" fill="#0f0f1a" opacity="0.8"/>
  <!-- Sidebar items -->
  <rect x="72" y="88" width="76" height="8" rx="2" fill="#00d4ff" opacity="0.6"/>
  <rect x="72" y="106" width="60" height="8" rx="2" fill="#ffffff" opacity="0.2"/>
  <rect x="72" y="124" width="68" height="8" rx="2" fill="#ffffff" opacity="0.2"/>
  <rect x="72" y="142" width="52" height="8" rx="2" fill="#ffffff" opacity="0.2"/>
  <rect x="72" y="160" width="64" height="8" rx="2" fill="#ffffff" opacity="0.2"/>
  <rect x="72" y="186" width="76" height="1" fill="#ffffff" opacity="0.1"/>
  <rect x="72" y="198" width="56" height="8" rx="2" fill="#ffffff" opacity="0.15"/>
  <rect x="72" y="216" width="48" height="8" rx="2" fill="#ffffff" opacity="0.15"/>
  <!-- Dashboard cards row 1 -->
  <rect x="174" y="84" width="110" height="70" rx="6" fill="url(#card-fill)" stroke="#00d4ff" stroke-width="0.5" opacity="0.8"/>
  <rect x="186" y="96" width="40" height="6" rx="2" fill="#00d4ff" opacity="0.5"/>
  <text x="186" y="124" font-family="Arial, sans-serif" font-size="20" font-weight="bold" fill="#00d4ff">247</text>
  <rect x="186" y="134" width="60" height="4" rx="1" fill="#ffffff" opacity="0.2"/>
  <rect x="296" y="84" width="110" height="70" rx="6" fill="url(#card-fill)" stroke="#00d4ff" stroke-width="0.5" opacity="0.8"/>
  <rect x="308" y="96" width="36" height="6" rx="2" fill="#00d4ff" opacity="0.5"/>
  <text x="308" y="124" font-family="Arial, sans-serif" font-size="20" font-weight="bold" fill="#ffffff" opacity="0.9">89%</text>
  <rect x="308" y="134" width="50" height="4" rx="1" fill="#ffffff" opacity="0.2"/>
  <rect x="418" y="84" width="110" height="70" rx="6" fill="url(#card-fill)" stroke="#00d4ff" stroke-width="0.5" opacity="0.8"/>
  <rect x="430" y="96" width="44" height="6" rx="2" fill="#00d4ff" opacity="0.5"/>
  <text x="430" y="124" font-family="Arial, sans-serif" font-size="20" font-weight="bold" fill="#ffffff" opacity="0.9">1.2k</text>
  <rect x="430" y="134" width="55" height="4" rx="1" fill="#ffffff" opacity="0.2"/>
  <!-- Code section -->
  <rect x="174" y="166" width="232" height="130" rx="6" fill="#0a0a0a" stroke="#00d4ff" stroke-width="0.5" opacity="0.7"/>
  <!-- Code lines -->
  <text x="184" y="184" font-family="Consolas, monospace" font-size="8" fill="#7c3aed">import</text>
  <text x="218" y="184" font-family="Consolas, monospace" font-size="8" fill="#ffffff" opacity="0.7"> React </text>
  <text x="252" y="184" font-family="Consolas, monospace" font-size="8" fill="#7c3aed">from</text>
  <text x="275" y="184" font-family="Consolas, monospace" font-size="8" fill="#00d4ff"> 'react'</text>
  <rect x="184" y="192" width="140" height="5" rx="1" fill="#ffffff" opacity="0.08"/>
  <text x="184" y="206" font-family="Consolas, monospace" font-size="8" fill="#7c3aed">const</text>
  <text x="212" y="206" font-family="Consolas, monospace" font-size="8" fill="#00d4ff"> Dashboard</text>
  <text x="275" y="206" font-family="Consolas, monospace" font-size="8" fill="#ffffff" opacity="0.5"> = () =&gt; {</text>
  <rect x="194" y="214" width="100" height="5" rx="1" fill="#ffffff" opacity="0.06"/>
  <rect x="194" y="224" width="120" height="5" rx="1" fill="#00d4ff" opacity="0.1"/>
  <rect x="194" y="234" width="80" height="5" rx="1" fill="#ffffff" opacity="0.06"/>
  <rect x="194" y="244" width="110" height="5" rx="1" fill="#ffffff" opacity="0.06"/>
  <rect x="184" y="256" width="20" height="5" rx="1" fill="#ffffff" opacity="0.08"/>
  <!-- Chart area -->
  <rect x="418" y="166" width="110" height="130" rx="6" fill="url(#card-fill)" stroke="#00d4ff" stroke-width="0.5" opacity="0.8"/>
  <!-- Mini bar chart -->
  <rect x="432" y="250" width="12" height="30" rx="2" fill="#00d4ff" opacity="0.4"/>
  <rect x="450" y="235" width="12" height="45" rx="2" fill="#00d4ff" opacity="0.6"/>
  <rect x="468" y="220" width="12" height="60" rx="2" fill="#00d4ff" opacity="0.8"/>
  <rect x="486" y="240" width="12" height="40" rx="2" fill="#00d4ff" opacity="0.5"/>
  <rect x="504" y="225" width="12" height="55" rx="2" fill="#00d4ff" opacity="0.7"/>
  <rect x="430" y="178" width="50" height="6" rx="2" fill="#ffffff" opacity="0.3"/>
  <!-- Glow effect -->
  <ellipse cx="300" cy="200" rx="200" ry="100" fill="#00d4ff" opacity="0.02"/>
  <!-- Project name -->
  <text x="300" y="370" font-family="Arial, sans-serif" font-size="14" fill="#ffffff" opacity="0.4" text-anchor="middle" letter-spacing="3">CLEn Portal</text>
</svg>